<svg xmlns="http://www.w3.org/2000/svg" viewBox="0 0 334.78 302.15"><defs><style>.cls-1{fill:#e91d24;}.cls-2{fill:#e71f8b;}.cls-3{fill:#fff;}</style></defs><g id="Layer_2" data-name="Layer 2"><g id="Layer_1-2" data-name="Layer 1"><path class="cls-1" d="M46.65,299.39a4.2,4.2,0,0,1-1.15,1.48,5.17,5.17,0,0,1-1.76.92,7.68,7.68,0,0,1-2.27.32A10,10,0,0,1,38,301.5a8.9,8.9,0,0,1-3-1.84l2-2.38a9.38,9.38,0,0,0,2.15,1.35,5.66,5.66,0,0,0,2.41.51,2.91,2.91,0,0,0,1.63-.39,1.19,1.19,0,0,0,.57-1.05v-.05a1.34,1.34,0,0,0-.12-.58,1.27,1.27,0,0,0-.46-.47,4.7,4.7,0,0,0-.94-.43,15,15,0,0,0-1.56-.46,19.87,19.87,0,0,1-2.11-.63,6,6,0,0,1-1.59-.87,3.42,3.42,0,0,1-1-1.27,4.44,4.44,0,0,1-.36-1.9V291a4.42,4.42,0,0,1,.39-1.88,4.34,4.34,0,0,1,1.09-1.46,4.85,4.85,0,0,1,1.69-.93,6.69,6.69,0,0,1,2.15-.33,8.82,8.82,0,0,1,5.68,1.94l-1.75,2.53a11.16,11.16,0,0,0-2-1.1,5.05,5.05,0,0,0-2-.4,2.33,2.33,0,0,0-1.47.38,1.16,1.16,0,0,0-.5.95v0a1.36,1.36,0,0,0,.15.65,1.27,1.27,0,0,0,.51.49,5.22,5.22,0,0,0,1,.41c.43.13,1,.29,1.63.46a16.17,16.17,0,0,1,2.07.69,5.71,5.71,0,0,1,1.53.92,3.5,3.5,0,0,1,1,1.25,4.44,4.44,0,0,1,.31,1.72v.05A4.79,4.79,0,0,1,46.65,299.39Z"></path><path class="cls-1" d="M50,301.89V286.61h11.5v3H53.3v3.1h7.21v3H53.3v3.21h8.3v3Z"></path><path class="cls-1" d="M73.89,301.89,70.62,297H68v4.89H64.62V286.61h7a6.24,6.24,0,0,1,4.25,1.33,4.67,4.67,0,0,1,1.51,3.71v0a4.83,4.83,0,0,1-.9,3,5.27,5.27,0,0,1-2.37,1.71l3.73,5.46ZM74,291.82a2,2,0,0,0-.7-1.63,3.08,3.08,0,0,0-2-.55H68V294h3.4a2.8,2.8,0,0,0,1.91-.59,2,2,0,0,0,.67-1.57Z"></path><path class="cls-1" d="M88.23,302h-3l-6.18-15.39H82.8l4,10.76,4-10.76h3.63Z"></path><path class="cls-1" d="M96.92,301.89V286.61h3.36v15.28Z"></path><path class="cls-1" d="M116.3,300.56a7.45,7.45,0,0,1-1.38.86,6.94,6.94,0,0,1-1.65.54,9.53,9.53,0,0,1-2,.19,8,8,0,0,1-3.12-.61,7.84,7.84,0,0,1-2.49-1.67,7.92,7.92,0,0,1-1.64-2.5,8.11,8.11,0,0,1-.58-3.08v0a8,8,0,0,1,.58-3.07,8.2,8.2,0,0,1,1.64-2.51,7.58,7.58,0,0,1,2.51-1.7,8.13,8.13,0,0,1,3.23-.63,9.83,9.83,0,0,1,2,.18,8.6,8.6,0,0,1,1.6.48,7,7,0,0,1,1.34.74,9.4,9.4,0,0,1,1.13,1l-2.14,2.47a8.23,8.23,0,0,0-1.82-1.27,4.75,4.75,0,0,0-2.09-.46,4.4,4.4,0,0,0-1.78.37,4.25,4.25,0,0,0-1.41,1,4.84,4.84,0,0,0-.91,1.52,5.09,5.09,0,0,0-.33,1.84v.05a5.19,5.19,0,0,0,.33,1.85,5.07,5.07,0,0,0,.9,1.53,4.38,4.38,0,0,0,1.4,1,4.27,4.27,0,0,0,1.8.38,4.7,4.7,0,0,0,2.22-.48,8.9,8.9,0,0,0,1.8-1.31l2.14,2.16A11.87,11.87,0,0,1,116.3,300.56Z"></path><path class="cls-1" d="M120.22,301.89V286.61h11.5v3h-8.19v3.1h7.21v3h-7.21v3.21h8.3v3Z"></path><path class="cls-1" d="M148.33,297.26a6.91,6.91,0,0,1-1.67,2.42,7.7,7.7,0,0,1-2.57,1.62,9,9,0,0,1-3.29.59h-6V286.61h6a9.2,9.2,0,0,1,3.29.57,7.68,7.68,0,0,1,2.57,1.61,7,7,0,0,1,1.67,2.41,7.68,7.68,0,0,1,.59,3v.05A7.69,7.69,0,0,1,148.33,297.26Zm-2.92-3a4.92,4.92,0,0,0-.34-1.86,4.42,4.42,0,0,0-.94-1.46,4,4,0,0,0-1.45-.95,5,5,0,0,0-1.88-.34h-2.6v9.21h2.6a5.37,5.37,0,0,0,1.88-.32,4.13,4.13,0,0,0,1.45-.94,4.54,4.54,0,0,0,.94-1.44,4.85,4.85,0,0,0,.34-1.86Z"></path><path class="cls-1" d="M169.83,301.89l-1.4-3.43H162l-1.39,3.43h-3.43l6.55-15.39h3.1l6.55,15.39Zm-4.62-11.35-2,4.95h4.07Z"></path><path class="cls-1" d="M187.32,294.27A4.75,4.75,0,0,1,186,296a5.66,5.66,0,0,1-2,1,8.12,8.12,0,0,1-2.41.34h-2.55v4.59h-3.36V286.61H182a7.22,7.22,0,0,1,2.46.38,5.13,5.13,0,0,1,1.83,1.08,4.82,4.82,0,0,1,1.16,1.67,5.53,5.53,0,0,1,.4,2.15v0A5.37,5.37,0,0,1,187.32,294.27ZM184.4,292a2.09,2.09,0,0,0-.74-1.73,3.1,3.1,0,0,0-2-.59h-2.59v4.67h2.66a2.73,2.73,0,0,0,2-.66,2.2,2.2,0,0,0,.71-1.65Z"></path><path class="cls-1" d="M201.66,301.89l-1.4-3.43H193.8l-1.39,3.43H189l6.55-15.39h3.1l6.55,15.39ZM197,290.54l-2,4.95h4.06Z"></path><path class="cls-1" d="M216.81,301.89,213.54,297H210.9v4.89h-3.36V286.61h7a6.24,6.24,0,0,1,4.25,1.33,4.67,4.67,0,0,1,1.51,3.71v0a4.83,4.83,0,0,1-.9,3,5.27,5.27,0,0,1-2.37,1.71l3.73,5.46Zm.07-10.07a2,2,0,0,0-.7-1.63,3.08,3.08,0,0,0-2-.55H210.9V294h3.4a2.8,2.8,0,0,0,1.91-.59,2,2,0,0,0,.67-1.57Z"></path><path class="cls-1" d="M230.24,289.71v12.18h-3.36V289.71h-4.65v-3.1h12.66v3.1Z"></path><path class="cls-1" d="M249.43,301.89v-10l-4.31,6.53H245L240.78,292v9.91h-3.32V286.61h3.63l4,6.46,4-6.46h3.62v15.28Z"></path><path class="cls-1" d="M256.41,301.89V286.61h11.51v3h-8.19v3.1h7.2v3h-7.2v3.21H268v3Z"></path><path class="cls-1" d="M281.76,301.89l-7.4-9.72v9.72H271V286.61h3.1l7.16,9.4v-9.4h3.32v15.28Z"></path><path class="cls-1" d="M295.21,289.71v12.18h-3.37V289.71H287.2v-3.1h12.66v3.1Z"></path><path class="cls-2" d="M166.63,0a7.55,7.55,0,0,0,.74.64,55.4,55.4,0,0,1,18.7,21.93,3.34,3.34,0,0,0,.21.29c5.45-2,10.9-4.1,16.89-4.66a42.56,42.56,0,0,1,3.69,15,52.69,52.69,0,0,1-1.23,15.49c4.82,2,9.57,4.13,13.66,7.55-.17.35-.31.68-.49,1a54.94,54.94,0,0,1-15.38,18.32A45.67,45.67,0,0,1,182,84.42c-2.23.29-4.49.3-6.74.47a2.27,2.27,0,0,1-1.76-.67c-1.94-1.71-3.91-3.38-5.86-5.06-.34-.29-.69-.57-1.07-.88-2.32,2-4.6,3.93-6.85,5.91a2.59,2.59,0,0,1-1.87.71,46.14,46.14,0,0,1-29.73-10.64A55.88,55.88,0,0,1,114,56.72c-.07-.14-.11-.3-.19-.51,4-3.4,8.8-5.5,13.62-7.52-2.2-10.39-1.85-20.5,2.35-30.34a8.16,8.16,0,0,1,3.21.27,72.88,72.88,0,0,1,12.23,3.67l1.55.59a6.64,6.64,0,0,0,.38-.6A55.52,55.52,0,0,1,165.4.87a10.15,10.15,0,0,0,1-.87Zm-1.16,77.68a45.76,45.76,0,0,1-9-7.78,24,24,0,0,1-5.67-11,9.63,9.63,0,0,1-.26-3.59c6.15,2.1,9.77,6.67,12.8,11.92,0-1.34-.13-2.63-.08-3.92.09-2.57.22-5.15.5-7.7a20,20,0,0,1,1.92-7.33c.85-1.58.38-2.85-.29-4.22-.12-.25-.28-.5-.4-.75a39.81,39.81,0,0,0-4.42-6.92,40.53,40.53,0,0,0-8.44-7.89,22,22,0,0,0-4.8-2.72,41.34,41.34,0,0,0,1.89,28.84,38.44,38.44,0,0,0-9.74-3.84A31.23,31.23,0,0,0,129,49.93c2.42,8.39,6.57,15.41,13.61,20.48a39,39,0,0,0,22.83,7.27M204,49.93a30.84,30.84,0,0,0-10.38.85,40.73,40.73,0,0,0-9.73,3.81,41,41,0,0,0,1.85-28.88c-.48.27-.88.54-1.31.73a30.4,30.4,0,0,0-6.27,4.2,34.29,34.29,0,0,0-5.64,5.78A38.13,38.13,0,0,0,167,45.88a1.55,1.55,0,0,0,.07,1.39,21.78,21.78,0,0,1,1.81,5.33,48.13,48.13,0,0,1,.93,11.11c0,1.2,0,2.41,0,3.75l.56-1a24.24,24.24,0,0,1,8.42-9.41,10.18,10.18,0,0,1,3.76-1.63,2.46,2.46,0,0,1,.11.29c0,.21,0,.41,0,.61a20.1,20.1,0,0,1-2.75,9,32.68,32.68,0,0,1-9.58,10.38c-.91.66-1.84,1.28-2.9,2,14.69,0,31.32-8,36.61-27.77"></path><path class="cls-3" d="M0,101.41a4.6,4.6,0,0,1,1-.2h7.5a3.83,3.83,0,0,1,.5.1v25.13c.48,0,.84.07,1.2.08,2.21,0,4.42,0,6.64,0a1.77,1.77,0,0,0,1.77-1q7.34-11.51,14.74-23c.2-.31.41-.61.6-.93a.93.93,0,0,1,.92-.47h8.73a2.24,2.24,0,0,1,.42.13c-.2.36-.36.67-.55,1q-8.09,12.27-16.17,24.54A5.47,5.47,0,0,1,26,128c-.7.55-1.46,1-2.35,1.65a4.89,4.89,0,0,0,.88.75,10.5,10.5,0,0,1,4.27,4.24q7.89,12,15.87,24c.22.34.43.69.71,1.15a5.64,5.64,0,0,1-.86.13c-2.59,0-5.17,0-7.75,0A1.8,1.8,0,0,1,35,159c-5.3-8.09-10.65-16.16-15.93-24.26a2,2,0,0,0-2-1.06c-2.26.07-4.52,0-6.77,0H9V160H0Z"></path><path class="cls-3" d="M88.85,245.64l-3-2.69c4-2,6.44-5.15,6.66-9.86h-8.4a33,33,0,0,1-.12-3.72h8.69c.22-2.05,0-4,.16-6.12l4.7.29c-.91.74-.68,1.67-.69,2.53,0,1,0,2,0,3.21h7.91a8,8,0,0,1,.11,3.74h-8.2c-.16,1-.29,2-.46,2.89a13.49,13.49,0,0,1-6.06,9c-.34.22-.67.47-1,.7Z"></path><path class="cls-3" d="M234.07,245.64l-2.85-2.56c3.38-1.78,5.75-4.25,6.1-8.35h-8.07a12.47,12.47,0,0,1-.06-3.55h19.53v3.44c-.4,0-.8.06-1.2.06H243c-1,0-1.33.34-1.64,1.29a35.86,35.86,0,0,1-1.41,3.92,12.28,12.28,0,0,1-4.43,5c-.33.22-.62.49-.93.74Z"></path><path class="cls-3" d="M145.54,159.91c-.59-2.26-1.19-4.47-1.76-6.68-2.5-9.59-5-19.17-7.47-28.78-.72-2.89-1.12-5.87-1.68-8.81-.17-.94-.37-1.87-.55-2.8h-.3a5.51,5.51,0,0,0-.32,1c-1.22,8.29-3.55,16.32-5.72,24.38q-2.8,10.45-5.59,20.89c-.06.24-.14.47-.25.88H110.75q-7.44-29.28-14.87-58.53a52.31,52.31,0,0,1,9.23-.16c1.94,8.14,3.84,16.34,5.73,24.54s3.72,16.32,5.6,24.53c.68-.28.59-.86.7-1.29.64-2.58,1.2-5.19,1.86-7.76q3.18-12.31,6.42-24.61,1.88-7.2,3.76-14.38c.1-.35.21-.69.33-1h8.94q6.15,24.52,12.31,49c.59,0,.57-.4.64-.75.61-2.81,1.18-5.62,1.83-8.41q2.55-10.83,5.14-21.64,2-8.48,4.07-17l.32-1.25H172l-15.29,58.64Z"></path><path class="cls-3" d="M274.86,160c-2.23,0-4.49,0-6.74,0-.63,0-.82-.45-1.09-.84l-7.31-10.35c-6-8.55-12.06-17.09-18-25.66-1.6-2.29-3-4.7-4.5-7.05-.24-.37-.5-.71-.78-1.12-.51.47-.34,1-.34,1.36,0,4.06,0,8.12,0,12.18V159.9h-7.69V101.2h1.71c1.53,0,3,0,4.56,0a1.75,1.75,0,0,1,1.7.89c3.29,4.76,6.63,9.48,9.95,14.21,5,7.15,10.06,14.28,15,21.47,1.7,2.45,3.22,5,4.83,7.56.22.34.33.85,1.07.91V101.27h7.62c.28.94.31,57.48,0,58.69"></path><path class="cls-3" d="M97,159.9H88.69q-2.75-8.22-5.5-16.41H59.68l-5.43,16.39H45.87a1.47,1.47,0,0,1,0-.5Q55.41,130.32,65,101.26H78q9.55,29,19.1,58a2.41,2.41,0,0,1,0,.64M81,136.22c-.16-.54-.28-1-.42-1.38-2-6.18-4.11-12.34-6.14-18.52-.88-2.64-1.69-5.3-2.55-7.95a2.27,2.27,0,0,0-.41-.54,4.68,4.68,0,0,0-.55.54,2.12,2.12,0,0,0-.19.57q-4.23,13-8.47,26c-.11.37-.2.76-.33,1.25Z"></path><path class="cls-3" d="M300.84,101.24h12.88c1.27,3.88,2.56,7.76,3.83,11.64l3.9,11.78q1.94,5.84,3.86,11.67c1.3,3.93,2.61,7.85,3.88,11.79s2.65,7.71,3.81,11.77h-8.52q-2.73-8.14-5.5-16.4H295.47q-2.72,8.19-5.44,16.41h-8.46c.14-.55.22-1.05.37-1.53q3.27-9.92,6.55-19.83l11.94-36.17c.12-.35.25-.69.41-1.13m-3.09,35H316.8l-.42-1.38q-3.08-9.25-6.14-18.51c-.87-2.61-1.67-5.23-2.51-7.83a2.61,2.61,0,0,0-.45-.65c-.2.22-.41.43-.59.67-.07.08-.07.23-.11.35q-4.24,13.07-8.5,26.13c-.13.37-.21.76-.33,1.22"></path><path class="cls-3" d="M202.5,101.29c.89,1.89,19.17,57.56,19.2,58.65-1.36.05-2.73,0-4.11,0h-4.21c-1.83-5.45-3.67-10.91-5.52-16.45H184.34l-5.43,16.38h-8.35a2.48,2.48,0,0,1,0-.67q9.52-28.93,19.09-57.93Zm3.18,34.92-9.36-28.47c-.25.11-.49.14-.52.23q-4.62,14.09-9.23,28.24Z"></path><path class="cls-3" d="M.55,208.15c0-.45-.08-.84-.12-1.3H334.78c0,.43,0,.83-.08,1.3Z"></path><path class="cls-3" d="M40.57,242.91A18.82,18.82,0,0,0,47.11,232H41.59v-3.59h6.27c.12-1.66.23-3.2.36-4.85l4.89.42c-1.48,1.3-.71,2.89-1.27,4.41a46.42,46.42,0,0,0,5.31-.06,5.66,5.66,0,0,1,2.61.34c.34.12.67.26.92.37-.13,1.67-.2,3.26-.39,4.83-.28,2.36-.63,4.71-1,7.06a6.73,6.73,0,0,1-.52,1.63,4.14,4.14,0,0,1-3.48,2.59,15,15,0,0,1-5.05-.36c-.11-1.25-.22-2.46-.33-3.8l1.15.18,1.46.22c2,.28,2.53-.06,3-2a39.39,39.39,0,0,0,.83-7.16,14.6,14.6,0,0,0-5.11-.12c-1.24,5-3.31,9.62-7.53,13.11l-3.13-2.33"></path><path class="cls-3" d="M293.07,242.13l-3.4,3-6.95-7.21a46,46,0,0,1-8.35,7.15l-2.91-2.85c.38-.24.73-.48,1.1-.7a30.72,30.72,0,0,0,11-11.52c.21-.38.37-.79.63-1.36H273.64V225H275c3.44,0,6.89.13,10.33-.06a7.21,7.21,0,0,1,4.33,1.26,2.25,2.25,0,0,1,.32.28L285.3,235l7.77,7.16"></path><path class="cls-3" d="M126.12,244.47c-.07-.41-.13-.72-.2-1.15h-13.7v-3.65H126v-8.75c-4.45-.13-8.89,0-13.42-.08v-3.63h15a24.3,24.3,0,0,0-2.86-3.35c.56-.46,1-.87,1.67-1.4l3,3.18L127.8,227c.68.4,1.4,0,2,.26.26.92.3,15.95,0,17.2Z"></path><path class="cls-3" d="M82.71,226.46l-.49,2.25c-.4,1.76-.7,3.54-1.22,5.26a15.94,15.94,0,0,1-7.76,9.6c-1,.57-2.1,1.07-3.16,1.6-.94-1-1.81-1.91-2.75-2.92l.8-.47a51.58,51.58,0,0,0,4.55-2.67c3.33-2.4,4.85-5.86,5.31-9.86,0-.07,0-.15-.08-.29H67.46v6H63.71v-9.68H78.76a5.68,5.68,0,0,1,3.95,1.18"></path><path class="cls-3" d="M282.47,194.6l-.21.1a2.78,2.78,0,0,1-3.32-1.48c-2.17-3.48-4.54-6.83-6.84-10.22-.22-.33-.46-.65-.88-1.24a41.46,41.46,0,0,0-.1,4.37c0,1.43,0,2.87,0,4.3v4.25h-2.82V175.86h2.14c.62,0,.81.49,1.07.88q3.56,5.25,7.09,10.51a3.86,3.86,0,0,0,1,1.07V176a6.38,6.38,0,0,1,2.88-.07Z"></path><path class="cls-3" d="M177.49,227c-.26.68-.54,1.26-.71,1.88a29,29,0,0,1-3.73,8.38,22,22,0,0,1-10.67,8.12l-2.62-3.13c6.19-2.19,10.53-6.09,12.43-12.68H158v-3.65H172.4c.37,0,.82.1,1.09-.08.76-.49,1.38-.17,2,.17s1.38.69,2,1"></path><path class="cls-3" d="M28,185.39a10.11,10.11,0,0,1,3.05-7.64,8,8,0,0,1,11.63.51,11.15,11.15,0,0,1,.11,14,8,8,0,0,1-13-.77A10.61,10.61,0,0,1,28,185.39m14.1-.11a7.6,7.6,0,0,0-1.69-4.85,4.92,4.92,0,0,0-7.38-.37,8.06,8.06,0,0,0,0,10.46,4.9,4.9,0,0,0,7.69-.57,8,8,0,0,0,1.42-4.67"></path><path class="cls-3" d="M123.08,176c.08,0,.11-.08.14-.08,2.9,0,5.82-.13,8.7.12a5,5,0,0,1,4.42,4.85,11.23,11.23,0,0,1-.28,3.27,4.77,4.77,0,0,1-2.5,3.06c-.27.15-.57.29-.95.49,1.43,2.29,2.82,4.54,4.34,7-1.19,0-2.16.07-3.11,0-.32,0-.66-.43-.86-.75-1-1.58-2-3.17-3-4.81a1.54,1.54,0,0,0-1.67-.9c-.73.07-1.47,0-2.38,0v6.41h-2.89Zm2.93,9.12c1.69,0,3.25.1,4.78,0a2.84,2.84,0,0,0,2.63-3.24A2.78,2.78,0,0,0,130.6,179c-1.26-.08-2.53,0-3.8,0a6.83,6.83,0,0,0-.79.11Z"></path><path class="cls-3" d="M215.44,194.76V176a3.22,3.22,0,0,1,.72-.13c2,0,3.93,0,5.89.06a8,8,0,0,1,7.5,5.43,10.28,10.28,0,0,1-.46,8.92,8,8,0,0,1-7.26,4.47c-2.08,0-4.17,0-6.39,0m3-15.79v12.77c1.19,0,2.29,0,3.39,0a5,5,0,0,0,4.59-3,7.57,7.57,0,0,0,0-6.86,4.9,4.9,0,0,0-4-2.91,35,35,0,0,0-4,0"></path><path class="cls-3" d="M187.78,245.3c-.56-.92-1.16-1.89-1.73-2.88a1.31,1.31,0,0,1-.11-.68c0-.61.19-1.2.19-1.81,0-4.75,0-9.5,0-14.26v-1.5a28.33,28.33,0,0,1,4.83.34,1.89,1.89,0,0,0-.75,1.75c0,4.26,0,8.53,0,12.79v1.16a20.51,20.51,0,0,0,11.6-8.51l2.74,2.81a17.26,17.26,0,0,1-3.17,3.69,29.53,29.53,0,0,1-11.59,6.25c-.63.19-1.24.51-2,.85"></path><path class="cls-3" d="M12.82,187.1H8.7v-2.88h6.91a8,8,0,0,1,.1.82c0,2.09,0,4.19,0,6.28a1.39,1.39,0,0,1-.39,1.22,9.26,9.26,0,0,1-7.91,2.51A7.55,7.55,0,0,1,2,191.42a11.19,11.19,0,0,1,.41-12.59,8.31,8.31,0,0,1,12.72-.75c-.57.79-1.16,1.59-1.78,2.46l-1.05-.8a5.07,5.07,0,0,0-7.91,1.75A8.12,8.12,0,0,0,4.17,189c1.71,3.71,5.55,3.75,8,2.23a1.21,1.21,0,0,0,.67-1.19c-.05-.9,0-1.8,0-2.89"></path><polygon class="cls-3" points="161.35 175.94 161.35 178.9 152.2 178.9 152.2 183.77 160.27 183.77 160.27 186.78 152.21 186.78 152.21 191.72 161.4 191.72 161.4 194.66 149.25 194.66 149.25 175.94 161.35 175.94"></polygon><path class="cls-3" d="M254.18,186.76h-8.09c-.06,1.66,0,3.24,0,5h9.29v2.8a84.85,84.85,0,0,1-12.05.14c-.24-.87-.32-16.91-.1-18.61a94,94,0,0,1,12,0v2.88h-9.06v4.87h8Z"></path><path class="cls-3" d="M322.67,194.67v-18.8c4,0,7.94,0,12,0v3h-9c-.08,1.65,0,3.18,0,4.87,1.4.12,2.74.05,4.07.06s2.62,0,4,0v3h-8v5h9.06v2.94Z"></path><path class="cls-3" d="M144.1,224.1h4.51l.15.2c-.86.53-.7,1.31-.71,2.06v13a9.41,9.41,0,0,0,3.56-3.71c.78-1.47,1.41-3,2.13-4.63l3.31,2a18.42,18.42,0,0,1-5.9,8.89c-.85.69-1.8,1.28-2.71,1.89-.61.41-1.24.79-2,1.26l-2.57-2.95c.08-1,.19-1.89.19-2.77,0-4.63,0-9.25,0-13.88Z"></path><path class="cls-3" d="M185.45,178.08l-1.53,2.49c-.55-.36-1-.68-1.5-1a5.4,5.4,0,0,0-3.51-.89,2.17,2.17,0,0,0-1.93,3,2.47,2.47,0,0,0,1.06,1.11,14.89,14.89,0,0,0,2.28.87c.85.31,1.73.55,2.54.92,2.4,1.06,3.36,2.91,3,5.7a5,5,0,0,1-4.29,4.57,9,9,0,0,1-8.1-2.62,2,2,0,0,1-.23-.39c.53-.73,1.08-1.47,1.68-2.28l1.31,1A6.05,6.05,0,0,0,180.6,192a2.45,2.45,0,0,0,2.27-1.6,2.06,2.06,0,0,0-1-2.61,18.28,18.28,0,0,0-2.4-.92c-.89-.32-1.81-.56-2.66-.93-2.1-.92-3.14-2.56-2.92-5.3a5,5,0,0,1,4.09-4.79,8,8,0,0,1,7.5,2.26"></path><path class="cls-3" d="M308.38,180.86c-.62-.49-1.13-1-1.69-1.35a4.85,4.85,0,0,0-6.87,1.12,8.33,8.33,0,0,0,.12,9.56,4.84,4.84,0,0,0,6.8,1c.57-.41,1.07-.89,1.72-1.43l1.81,2.06a8,8,0,0,1-12.06,1.14,9.58,9.58,0,0,1-2.69-5.15,11.29,11.29,0,0,1,1.55-8.6,8.17,8.17,0,0,1,13.1-.73l-1.79,2.42"></path><path class="cls-3" d="M82,175.92H94a7.29,7.29,0,0,1,0,3H84.94V184h8v3H84.9v7.5a4.93,4.93,0,0,1-2.93.12Z"></path><path class="cls-3" d="M254.25,245.1l-2.56-3.64L253,241a25.42,25.42,0,0,0,12.27-8.44,46.5,46.5,0,0,0,2.52-4c.21-.34.37-.71.56-1.1l3.57,2.21c-.2.43-.37.84-.57,1.23a28.73,28.73,0,0,1-14.75,13.11c-.73.31-1.43.7-2.36,1.16"></path><path class="cls-3" d="M210.22,245.19c-.79-1.06-1.67-2.27-2.67-3.62,7.42-2.16,13.08-6.27,16.37-13.39l3.36,2.52c-.24.47-.44.91-.68,1.33a27.62,27.62,0,0,1-14.35,12.13c-.65.26-1.26.64-2,1"></path><path class="cls-3" d="M61,176v15.78h8.52v2.94H58.21c-.23-.89-.29-17.08-.07-18.72Z"></path><path class="cls-3" d="M137.05,227l4.5.28c-.71.66-.51,1.43-.53,2.13a36.68,36.68,0,0,1-1.73,11.49,37.84,37.84,0,0,1-1.69,3.67,7.43,7.43,0,0,1-.64.93l-3.4-2a16.24,16.24,0,0,0,3-8c.27-2.35.34-4.73.48-7.11,0-.4,0-.8,0-1.39"></path><path class="cls-3" d="M245.94,227.14l-.76-.9c-.07.66-.12,1.16-.18,1.65a113,113,0,0,1-13.53,0V224.5h12.24c-.15-.33-.24-.54-.39-.86l1.62-1.24,2.75,3.38c-.63.48-1.16.89-1.75,1.36"></path><rect class="cls-3" x="198.92" y="175.94" width="2.83" height="18.75"></rect><path class="cls-3" d="M252.89,224.86a31.24,31.24,0,0,1,7.3,3.21l-1.95,3.41-7.09-3.4,1.74-3.22"></path><path class="cls-3" d="M213.56,232.63c-.6,1.19-1.11,2.2-1.64,3.23-2.11-.85-4.1-1.67-6.23-2.52.5-1,1-1.94,1.56-3a29.51,29.51,0,0,1,6.31,2.32"></path><path class="cls-3" d="M210.39,224.3a23.52,23.52,0,0,1,6.26,2.48c-.29.51-.57,1-.88,1.55s-.62,1-.91,1.5l-6.09-2.68a14.34,14.34,0,0,1,1.62-2.85"></path><path class="cls-3" d="M219.86,224.69l1.65-1.27a17.07,17.07,0,0,1,2.84,3.44l-1.77,1.34c-.91-1.19-1.8-2.33-2.72-3.51"></path><path class="cls-3" d="M226.52,226.82c-.94-1.19-1.81-2.27-2.73-3.44l1.62-1.25a18.41,18.41,0,0,1,2.87,3.35l-1.76,1.34"></path><path class="cls-3" d="M133.52,225.26l-1.66,1.39-2.93-3.2c.47-.41,1-.81,1.55-1.31a14.1,14.1,0,0,1,3,3.12"></path><path class="cls-3" d="M247,223.19l1.53-1.16a18.28,18.28,0,0,1,2.77,3.3l-1.66,1.26-2.64-3.4"></path></g></g></svg>